<?xml version="1.0" encoding="UTF-8" standalone="no"?>
<svg
   width="128"
   height="128"
   version="1.1"
   id="svg22"
   sodipodi:docname="icon.svg"
   inkscape:version="1.2.2 (b0a8486541, 2022-12-01)"
   xmlns:inkscape="http://www.inkscape.org/namespaces/inkscape"
   xmlns:sodipodi="http://sodipodi.sourceforge.net/DTD/sodipodi-0.dtd"
   xmlns="http://www.w3.org/2000/svg"
   xmlns:svg="http://www.w3.org/2000/svg">
  <defs
     id="defs26">
    <inkscape:path-effect
       effect="bspline"
       id="path-effect2158"
       is_visible="true"
       lpeversion="1"
       weight="33.333333"
       steps="2"
       helper_size="0"
       apply_no_weight="true"
       apply_with_weight="true"
       only_selected="false" />
    <inkscape:path-effect
       effect="bspline"
       id="path-effect2152"
       is_visible="true"
       lpeversion="1"
       weight="33.333333"
       steps="2"
       helper_size="0"
       apply_no_weight="true"
       apply_with_weight="true"
       only_selected="false" />
    <inkscape:path-effect
       effect="bspline"
       id="path-effect1531"
       is_visible="true"
       lpeversion="1"
       weight="33.333333"
       steps="2"
       helper_size="0"
       apply_no_weight="true"
       apply_with_weight="true"
       only_selected="false" />
    <inkscape:path-effect
       effect="bspline"
       id="path-effect2158-3"
       is_visible="true"
       lpeversion="1"
       weight="33.333333"
       steps="2"
       helper_size="0"
       apply_no_weight="true"
       apply_with_weight="true"
       only_selected="false" />
  </defs>
  <sodipodi:namedview
     id="namedview24"
     pagecolor="#505050"
     bordercolor="#eeeeee"
     borderopacity="1"
     inkscape:showpageshadow="0"
     inkscape:pageopacity="0"
     inkscape:pagecheckerboard="0"
     inkscape:deskcolor="#505050"
     showgrid="false"
     inkscape:zoom="4.171875"
     inkscape:cx="62.322097"
     inkscape:cy="64"
     inkscape:window-width="1920"
     inkscape:window-height="1011"
     inkscape:window-x="1080"
     inkscape:window-y="181"
     inkscape:window-maximized="1"
     inkscape:current-layer="g1242" />
  <rect
     width="124"
     height="124"
     x="2"
     y="2"
     fill="#363d52"
     stroke="#212532"
     stroke-width="4"
     rx="14"
     id="rect2" />
  <g
     id="g1242"
     transform="matrix(0.4172407,-0.09789157,0.14261692,0.60787243,28.148066,31.476897)">
    <g
       fill="#ffffff"
       transform="matrix(0.11023529,0.00148725,-0.05734794,0.09176471,36.984745,16.29368)"
       id="g14">
      <path
         d="m 105,673 v 33 q 407,354 814,0 v -33 z"
         id="path4" />
      <path
         fill="#478cbf"
         d="m 105,673 152,14 q 12,1 15,14 l 4,67 132,10 8,-61 q 2,-11 15,-15 h 162 q 13,4 15,15 l 8,61 132,-10 4,-67 q 3,-13 15,-14 L 919,673 V 427 q 30,-39 56,-81 -35,-59 -83,-108 -43,20 -82,47 -40,-37 -88,-64 7,-51 8,-102 -59,-28 -123,-42 -26,43 -46,89 -49,-7 -98,0 -20,-46 -46,-89 -64,14 -123,42 1,51 8,102 -48,27 -88,64 -39,-27 -82,-47 -48,49 -83,108 26,42 56,81 z m 0,33 v 39 c 0,276 813,276 814,0 v -39 l -134,12 -5,69 q -2,10 -14,13 l -162,11 q -12,0 -16,-11 L 578,735 H 446 l -10,65 q -4,11 -16,11 L 258,800 q -12,-3 -14,-13 l -5,-69 z"
         id="path6" />
      <path
         d="m 483,600 c 0,34 58,34 58,0 v -86 c 0,-34 -58,-34 -58,0 z"
         id="path8" />
      <circle
         cx="725"
         cy="526"
         r="90"
         id="circle10" />
      <circle
         cx="299"
         cy="526"
         r="90"
         id="circle12" />
    </g>
    <g
       fill="#414042"
       transform="matrix(0.101,0,0,0.101,12.322,12.322)"
       id="g20">
      <circle
         cx="307"
         cy="532"
         r="60"
         id="circle16" />
      <circle
         cx="717"
         cy="532"
         r="60"
         id="circle18"
         style="display:inline" />
    </g>
  </g>
  <path
     style="fill:none;stroke:#000000;stroke-width:7.1033;stroke-linecap:round;stroke-dasharray:none;stroke-opacity:1"
     d="m 15.791424,31.369934 c 4.416556,4.282948 8.832144,8.564958 9.194269,17.120131 0.362126,8.555174 -3.327853,21.383097 -4.120591,32.590902 -0.792739,11.207805 1.311235,20.794443 3.414979,30.380033"
     id="path1529"
     inkscape:path-effect="#path-effect1531"
     inkscape:original-d="m 15.791424,31.369934 c 4.416365,4.283145 8.831953,8.565154 13.246763,12.846028 -3.689348,12.82957 -7.379328,25.657493 -11.070157,38.484537 2.104838,9.588162 4.208812,19.174801 6.312051,28.760501" />
  <path
     style="fill:none;stroke:#000000;stroke-width:7.1033;stroke-linecap:round;stroke-dasharray:none;stroke-opacity:1"
     d="m 27.826598,23.490863 c 4.416555,4.282947 8.832143,8.564957 9.194268,17.12013 0.362126,8.555173 -3.327852,21.383097 -4.12059,32.590901 -0.792739,11.207804 1.311237,20.794445 3.41498,30.380026"
     id="path2148"
     inkscape:path-effect="#path-effect2152"
     inkscape:original-d="m 27.826598,23.490863 c 4.416364,4.283144 8.831952,8.565153 13.246762,12.846027 -3.689347,12.82957 -7.379326,25.657493 -11.070156,38.484536 2.104837,9.588161 4.208812,19.174803 6.312052,28.760494" />
  <path
     style="fill:none;stroke:#000000;stroke-width:7.13351;stroke-linecap:round;stroke-dasharray:none;stroke-opacity:1"
     d="M 101.61885,107.57843 C 97.162608,103.29744 92.707338,99.017377 92.341956,90.466103 91.976575,81.914828 95.699715,69.092757 96.499579,57.89006 97.299442,46.687362 95.176559,37.10509 93.05391,27.523879"
     id="path2154"
     inkscape:path-effect="#path-effect2158"
     inkscape:original-d="M 101.61885,107.57843 C 97.162798,103.29724 92.707531,99.017176 88.253042,94.738254 91.975554,81.914532 95.698687,69.092459 99.422687,56.271263 97.298935,46.687474 95.176054,37.105202 93.05391,27.523879" />
  <path
     style="fill:none;stroke:#000000;stroke-width:7.13351;stroke-linecap:round;stroke-dasharray:none;stroke-opacity:1"
     d="m 113.65403,100.86314 c -4.45625,-4.28099 -8.91152,-8.561048 -9.27691,-17.112324 -0.36538,-8.551277 3.35776,-21.373348 4.15762,-32.576043 0.79986,-11.202696 -1.32302,-20.784966 -3.44567,-30.36618"
     id="path2154-6"
     inkscape:path-effect="#path-effect2158-3"
     inkscape:original-d="m 113.65403,100.86314 c -4.45606,-4.281186 -8.91133,-8.56125 -13.36583,-12.840172 3.72253,-12.823721 7.44566,-25.645795 11.16965,-38.46699 -2.12375,-9.583789 -4.24662,-19.166062 -6.36878,-28.747385" />
</svg>
